<svg xmlns="http://www.w3.org/2000/svg" width="220" height="220" viewBox="0 0 220 220" role="img" aria-label="Sparkpit Labs">
  <defs>
    <linearGradient id="g" x1="0" y1="0" x2="1" y2="1">
      <stop offset="0" stop-color="#ff7a18"/>
      <stop offset="0.55" stop-color="#af62ff"/>
      <stop offset="1" stop-color="#18d6ff"/>
    </linearGradient>
    <filter id="soft" x="-20%" y="-20%" width="140%" height="140%">
      <feGaussianBlur stdDeviation="6" result="b"/>
      <feMerge>
        <feMergeNode in="b"/>
        <feMergeNode in="SourceGraphic"/>
      </feMerge>
    </filter>
  </defs>
  <rect x="18" y="18" width="184" height="184" rx="46" fill="rgba(255,255,255,0.06)" stroke="rgba(255,255,255,0.18)"/>
  <path filter="url(#soft)" d="M110 44c8 16 10 29 6 40-5 13-17 21-30 26 9 2 21 7 27 16 9 13 6 31-8 45 22-6 41-21 50-40 8-17 9-36 0-55-7-16-22-27-45-32z" fill="url(#g)"/>
  <text x="110" y="132" text-anchor="middle" font-family="Inter, system-ui, -apple-system, Segoe UI, Roboto, Arial" font-weight="800" font-size="44" fill="white" letter-spacing="1">SP</text>
</svg>
